<!-- Generated by IcoMoon.io -->
<svg version="1.1" xmlns="http://www.w3.org/2000/svg" width="32" height="32" viewBox="0 0 32 32">
<title>icons8--24</title>
<path d="M24.042 0c-1.526 0-1.5 0.125-1.5 0.125-0.182 0.88-0.37 1.516-0.5 1.875-0.776 0.255-1.51 0.651-2.125 1.167-0.37-0.073-0.969-0.25-1.792-0.542 0 0-0.089-0.078-0.875 1.25-0.786 1.323-0.667 1.375-0.667 1.375 0.609 0.573 1.005 1.036 1.25 1.333-0.104 0.458-0.167 0.927-0.167 1.417 0 0.443 0.036 0.875 0.125 1.292-0.25 0.292-0.63 0.74-1.25 1.292 0 0-0.135 0.031 0.625 1.375 0.755 1.344 0.875 1.292 0.875 1.292 0.833-0.276 1.422-0.438 1.792-0.5 0.609 0.536 1.339 0.979 2.125 1.25 0.13 0.354 0.313 0.964 0.5 1.875 0 0-0.026 0.125 1.5 0.125 1.521 0 1.5-0.125 1.5-0.125 0.182-0.88 0.37-1.516 0.5-1.875 0.776-0.255 1.51-0.651 2.125-1.167 0.37 0.073 0.969 0.25 1.792 0.542 0 0 0.089 0.073 0.875-1.25 0.786-1.328 0.667-1.375 0.667-1.375-0.609-0.573-1.005-1.036-1.25-1.333 0.104-0.453 0.167-0.927 0.167-1.417 0-0.443-0.036-0.875-0.125-1.292 0.25-0.292 0.635-0.74 1.25-1.292 0 0 0.135-0.031-0.625-1.375-0.755-1.344-0.875-1.292-0.875-1.292-0.833 0.276-1.422 0.432-1.792 0.5-0.609-0.536-1.339-0.979-2.125-1.25-0.13-0.354-0.313-0.964-0.5-1.875 0 0 0.021-0.125-1.5-0.125zM24 2.667c2.948 0 5.333 2.385 5.333 5.333s-2.385 5.333-5.333 5.333c-2.948 0-5.333-2.385-5.333-5.333s2.385-5.333 5.333-5.333zM24 4c-2.208 0-4 1.792-4 4s1.792 4 4 4c2.208 0 4-1.792 4-4s-1.792-4-4-4zM24 6c1.104 0 2 0.896 2 2s-0.896 2-2 2c-1.104 0-2-0.896-2-2s0.896-2 2-2zM10.708 10.667c-2.031 0-2 0.208-2 0.208-0.24 1.172-0.495 1.943-0.667 2.417-1.036 0.339-1.974 0.896-2.792 1.583-0.495-0.099-1.318-0.318-2.417-0.708 0 0-0.12-0.099-1.167 1.667s-0.875 1.833-0.875 1.833c0.813 0.76 1.344 1.396 1.667 1.792-0.141 0.609-0.25 1.224-0.25 1.875 0 0.589 0.094 1.156 0.208 1.708-0.333 0.391-0.885 0.969-1.708 1.708 0 0-0.177 0.083 0.833 1.875 1.010 1.786 1.167 1.667 1.167 1.667 1.115-0.37 1.922-0.536 2.417-0.625 0.813 0.714 1.745 1.266 2.792 1.625 0.172 0.469 0.458 1.286 0.708 2.5 0 0-0.031 0.208 2 0.208s2-0.208 2-0.208c0.24-1.172 0.495-1.943 0.667-2.417 1.036-0.339 1.974-0.896 2.792-1.583 0.495 0.099 1.318 0.318 2.417 0.708 0 0 0.12 0.099 1.167-1.667s0.875-1.833 0.875-1.833c-0.813-0.76-1.344-1.391-1.667-1.792 0.141-0.609 0.25-1.224 0.25-1.875 0-0.589-0.094-1.156-0.208-1.708 0.328-0.391 0.885-0.969 1.708-1.708 0 0 0.177-0.089-0.833-1.875-1.010-1.792-1.167-1.667-1.167-1.667-1.115 0.365-1.922 0.536-2.417 0.625-0.813-0.714-1.745-1.266-2.792-1.625-0.172-0.469-0.417-1.286-0.667-2.5 0 0-0.010-0.208-2.042-0.208zM10.667 14.667c3.682 0 6.667 2.984 6.667 6.667s-2.984 6.667-6.667 6.667c-3.682 0-6.667-2.984-6.667-6.667s2.984-6.667 6.667-6.667zM10.667 16c-2.948 0-5.333 2.385-5.333 5.333s2.385 5.333 5.333 5.333c2.948 0 5.333-2.385 5.333-5.333s-2.385-5.333-5.333-5.333zM10.667 18.667c1.474 0 2.667 1.193 2.667 2.667s-1.193 2.667-2.667 2.667c-1.474 0-2.667-1.193-2.667-2.667s1.193-2.667 2.667-2.667z"></path>
</svg>
